<mxfile host="app.diagrams.net" agent="Mozilla/5.0 (Windows NT 10.0; Win64; x64) AppleWebKit/537.36 (KHTML, like Gecko) Chrome/131.0.0.0 Safari/537.36" version="24.9.2">
  <diagram name="Side-1" id="q0ZUMYnR-T5BMUQJpofd">
    <mxGraphModel dx="894" dy="462" grid="1" gridSize="10" guides="1" tooltips="1" connect="1" arrows="1" fold="1" page="1" pageScale="1" pageWidth="10" pageHeight="10" math="0" shadow="0">
      <root>
        <mxCell id="0" />
        <mxCell id="1" parent="0" />
        <mxCell id="oVpq-YFGslrVp_tE2nab-1" value="" style="edgeStyle=orthogonalEdgeStyle;rounded=0;orthogonalLoop=1;jettySize=auto;html=1;" edge="1" parent="1" source="oVpq-YFGslrVp_tE2nab-2">
          <mxGeometry relative="1" as="geometry">
            <mxPoint x="395" y="240" as="targetPoint" />
          </mxGeometry>
        </mxCell>
        <mxCell id="oVpq-YFGslrVp_tE2nab-2" value="ID:3 Start&lt;div&gt;&lt;br&gt;&lt;/div&gt;" style="ellipse;whiteSpace=wrap;html=1;" vertex="1" parent="1">
          <mxGeometry x="335" y="130" width="120" height="80" as="geometry" />
        </mxCell>
        <mxCell id="oVpq-YFGslrVp_tE2nab-6" value="" style="edgeStyle=orthogonalEdgeStyle;rounded=0;orthogonalLoop=1;jettySize=auto;html=1;" edge="1" parent="1" source="oVpq-YFGslrVp_tE2nab-7">
          <mxGeometry relative="1" as="geometry">
            <mxPoint x="300" y="270" as="targetPoint" />
          </mxGeometry>
        </mxCell>
        <mxCell id="oVpq-YFGslrVp_tE2nab-7" value="&lt;span style=&quot;background-color: initial;&quot;&gt;C&lt;/span&gt;&lt;div&gt;&lt;span style=&quot;background-color: initial;&quot;&gt;Main&lt;/span&gt;&lt;/div&gt;" style="ellipse;whiteSpace=wrap;html=1;aspect=fixed;" vertex="1" parent="1">
          <mxGeometry x="60" y="230" width="80" height="80" as="geometry" />
        </mxCell>
        <mxCell id="oVpq-YFGslrVp_tE2nab-8" value="" style="edgeStyle=orthogonalEdgeStyle;rounded=0;orthogonalLoop=1;jettySize=auto;html=1;" edge="1" parent="1" source="oVpq-YFGslrVp_tE2nab-9" target="oVpq-YFGslrVp_tE2nab-11">
          <mxGeometry relative="1" as="geometry" />
        </mxCell>
        <mxCell id="oVpq-YFGslrVp_tE2nab-9" value="Opdater Thingsboard med alt data" style="ellipse;whiteSpace=wrap;html=1;aspect=fixed;" vertex="1" parent="1">
          <mxGeometry x="333" y="635" width="125" height="125" as="geometry" />
        </mxCell>
        <mxCell id="oVpq-YFGslrVp_tE2nab-10" style="edgeStyle=orthogonalEdgeStyle;rounded=0;orthogonalLoop=1;jettySize=auto;html=1;entryX=0;entryY=0.5;entryDx=0;entryDy=0;" edge="1" parent="1" source="oVpq-YFGslrVp_tE2nab-11">
          <mxGeometry relative="1" as="geometry">
            <Array as="points">
              <mxPoint x="190" y="270" />
            </Array>
            <mxPoint x="300" y="270" as="targetPoint" />
          </mxGeometry>
        </mxCell>
        <mxCell id="oVpq-YFGslrVp_tE2nab-11" value="Vent lidt tid" style="rounded=0;whiteSpace=wrap;html=1;" vertex="1" parent="1">
          <mxGeometry x="150" y="670" width="80" height="55" as="geometry" />
        </mxCell>
        <mxCell id="oVpq-YFGslrVp_tE2nab-13" value="" style="edgeStyle=orthogonalEdgeStyle;rounded=0;orthogonalLoop=1;jettySize=auto;html=1;" edge="1" parent="1" source="oVpq-YFGslrVp_tE2nab-14" target="oVpq-YFGslrVp_tE2nab-16">
          <mxGeometry relative="1" as="geometry" />
        </mxCell>
        <mxCell id="oVpq-YFGslrVp_tE2nab-14" value="Kontakt og beregn GPS Placering, Retning og hastighed" style="rounded=0;whiteSpace=wrap;html=1;" vertex="1" parent="1">
          <mxGeometry x="310" y="440" width="170" height="60" as="geometry" />
        </mxCell>
        <mxCell id="oVpq-YFGslrVp_tE2nab-15" value="" style="edgeStyle=orthogonalEdgeStyle;rounded=0;orthogonalLoop=1;jettySize=auto;html=1;" edge="1" parent="1" source="oVpq-YFGslrVp_tE2nab-16" target="oVpq-YFGslrVp_tE2nab-9">
          <mxGeometry relative="1" as="geometry" />
        </mxCell>
        <mxCell id="oVpq-YFGslrVp_tE2nab-16" value="Fortag temparturmåling" style="shape=parallelogram;perimeter=parallelogramPerimeter;whiteSpace=wrap;html=1;fixedSize=1;rounded=0;" vertex="1" parent="1">
          <mxGeometry x="290" y="540" width="210" height="60" as="geometry" />
        </mxCell>
        <mxCell id="oVpq-YFGslrVp_tE2nab-17" style="edgeStyle=orthogonalEdgeStyle;rounded=0;orthogonalLoop=1;jettySize=auto;html=1;entryX=0.5;entryY=0;entryDx=0;entryDy=0;" edge="1" parent="1" source="oVpq-YFGslrVp_tE2nab-18" target="oVpq-YFGslrVp_tE2nab-19">
          <mxGeometry relative="1" as="geometry" />
        </mxCell>
        <mxCell id="oVpq-YFGslrVp_tE2nab-18" value="Mål batteri-spænding" style="shape=parallelogram;perimeter=parallelogramPerimeter;whiteSpace=wrap;html=1;fixedSize=1;rounded=0;" vertex="1" parent="1">
          <mxGeometry x="290" y="245" width="210" height="60" as="geometry" />
        </mxCell>
        <mxCell id="oVpq-YFGslrVp_tE2nab-20" value="" style="edgeStyle=orthogonalEdgeStyle;rounded=0;orthogonalLoop=1;jettySize=auto;html=1;" edge="1" parent="1" source="oVpq-YFGslrVp_tE2nab-19" target="oVpq-YFGslrVp_tE2nab-14">
          <mxGeometry relative="1" as="geometry" />
        </mxCell>
        <mxCell id="oVpq-YFGslrVp_tE2nab-19" value="Beregn batteri-procent ud fra målingen" style="rounded=0;whiteSpace=wrap;html=1;" vertex="1" parent="1">
          <mxGeometry x="305" y="335" width="180" height="60" as="geometry" />
        </mxCell>
      </root>
    </mxGraphModel>
  </diagram>
</mxfile>
